<?xml version="1.0" encoding="UTF-8" standalone="no"?>
<svg width="20px" height="16px" viewBox="0 0 20 16" version="1.1" xmlns="http://www.w3.org/2000/svg" xmlns:xlink="http://www.w3.org/1999/xlink" xmlns:sketch="http://www.bohemiancoding.com/sketch/ns">
    <!-- Generator: Sketch 3.3.3 (12081) - http://www.bohemiancoding.com/sketch -->
    <title>Shape</title>
    <desc>Created with Sketch.</desc>
    <defs></defs>
    <g id="Page-1" stroke="none" stroke-width="1" fill="none" fill-rule="evenodd" sketch:type="MSPage">
        <g id="main-page-mvp" sketch:type="MSArtboardGroup" transform="translate(-1162.000000, -472.000000)" fill="#FFFFFF">
            <g id="Header-/-Nav-/-h1-/-FAB" sketch:type="MSLayerGroup">
                <g id="FAB" transform="translate(1144.000000, 452.000000)" sketch:type="MSShapeGroup">
                    <g id="ic_local_attraction_24px" transform="translate(16.000000, 16.000000)">
                        <path d="M20,12 C20,10.9 20.9,10 22,10 L22,6 C22,4.9 21.1,4 20,4 L4,4 C2.9,4 2.01,4.9 2.01,6 L2.01,10 C3.11,10 4,10.9 4,12 C4,13.1 3.11,14 2,14 L2,18 C2,19.1 2.9,20 4,20 L20,20 C21.1,20 22,19.1 22,18 L22,14 C20.9,14 20,13.1 20,12 L20,12 Z M15.58,16.8 L12,14.5 L8.42,16.8 L9.5,12.68 L6.21,9.99 L10.45,9.74 L12,5.8 L13.54,9.75 L17.78,10 L14.49,12.69 L15.58,16.8 L15.58,16.8 Z" id="Shape"></path>
                    </g>
                </g>
            </g>
        </g>
    </g>
</svg>